<?xml version="1.0" standalone="no"?>
<!DOCTYPE svg PUBLIC "-//W3C//DTD SVG 20010904//EN"
 "http://www.w3.org/TR/2001/REC-SVG-20010904/DTD/svg10.dtd">
<svg version="1.0" xmlns="http://www.w3.org/2000/svg"
 width="1250.000000pt" height="991.000000pt" viewBox="0 0 1250.000000 991.000000"
 preserveAspectRatio="xMidYMid meet">

<g transform="translate(0.000000,991.000000) scale(0.100000,-0.100000)"
fill="#000000" stroke="none">
<path d="M0 4955 l0 -4955 6245 0 6245 0 0 4955 0 4955 -6245 0 -6245 0 0
-4955z m6030 3130 c-12 -51 -54 -111 -98 -139 -54 -34 -128 -54 -284 -76 -84
-11 -162 -29 -200 -44 -67 -27 -83 -28 -44 -2 43 28 126 58 256 93 95 25 112
32 70 27 -71 -7 -195 -38 -257 -65 -62 -26 -115 -67 -107 -81 4 -7 2 -8 -5 -4
-6 4 -19 2 -28 -6 -15 -12 -15 -11 -5 9 18 32 90 88 158 122 59 29 142 48 307
70 42 6 95 20 116 30 49 25 97 81 107 123 l7 33 8 -27 c4 -15 3 -43 -1 -63z
m470 -25 c45 -45 103 -66 225 -80 122 -14 179 -28 251 -60 63 -28 136 -87 156
-124 8 -16 4 -14 -18 7 -64 64 -169 106 -343 138 -158 29 -153 22 15 -21 142
-36 274 -85 287 -108 4 -5 -19 1 -51 14 -57 23 -208 54 -262 54 -48 0 -177 38
-219 65 -76 47 -126 145 -105 207 7 21 9 19 17 -16 6 -23 25 -54 47 -76z
m-125 -73 c70 -87 146 -121 322 -142 161 -19 225 -32 281 -56 58 -25 50 -33
-13 -13 -27 8 -114 19 -193 25 -78 5 -166 14 -194 19 -28 6 -53 8 -55 6 -11
-11 133 -38 253 -47 227 -17 233 -29 14 -25 -217 3 -263 13 -346 69 -89 59
-149 177 -136 267 l5 32 16 -49 c9 -26 30 -65 46 -86z m-217 60 c-12 -143
-124 -256 -288 -287 -66 -12 -394 -13 -363 0 11 5 86 13 165 19 126 9 286 36
275 47 -2 2 -28 -1 -58 -6 -30 -6 -118 -15 -195 -21 -126 -8 -180 -18 -249
-44 -18 -7 -19 -6 -5 9 23 24 114 53 208 65 45 6 119 16 164 22 113 15 178 42
241 99 47 43 72 81 91 143 12 37 19 14 14 -46z m62 -111 c0 -75 -27 -133 -83
-182 -102 -88 -213 -119 -501 -140 -282 -20 -372 -40 -510 -112 -119 -62 -214
-164 -263 -282 -28 -69 -30 -35 -3 53 40 128 156 261 288 330 140 73 252 96
527 107 223 9 290 19 370 55 104 46 155 114 155 207 0 38 3 49 10 38 5 -8 10
-42 10 -74z m42 56 c-11 -77 50 -172 140 -218 80 -40 161 -54 383 -64 284 -13
391 -34 530 -107 154 -80 276 -230 300 -369 7 -36 5 -34 -26 26 -40 78 -152
194 -229 237 -136 75 -240 98 -526 118 -292 21 -406 53 -505 142 -56 51 -83
106 -83 173 -1 49 7 90 17 90 2 0 2 -13 -1 -28z m-1290 -284 c-6 -18 -13 -41
-17 -50 -14 -34 10 -18 98 65 124 117 108 76 -20 -49 -58 -57 -103 -108 -99
-112 4 -4 15 2 24 13 10 11 48 47 86 80 37 33 79 75 92 95 13 19 24 29 24 21
0 -30 -74 -132 -170 -235 -108 -115 -155 -186 -165 -248 -8 -43 -16 -47 -46
-17 -60 60 -79 187 -45 299 17 59 43 107 32 60 -20 -80 -26 -130 -20 -168 10
-66 19 -57 21 22 1 39 8 91 16 116 14 43 15 44 24 21 l10 -24 23 34 c29 41 90
111 90 103 0 -3 -9 -19 -20 -34 -33 -47 -70 -138 -70 -173 1 -29 2 -28 18 19
10 28 35 79 55 114 21 35 43 84 50 109 l12 46 3 -37 c2 -21 -1 -52 -6 -70z
m2546 -74 c2 3 -3 23 -12 46 -9 22 -16 57 -15 78 l0 37 13 -40 c7 -22 28 -64
46 -94 19 -30 44 -82 57 -115 l24 -61 -5 53 c-4 36 -17 75 -41 118 -20 35 -34
64 -31 64 3 0 27 -30 53 -67 48 -67 48 -67 53 -38 l6 30 14 -40 c8 -23 15 -77
15 -127 0 -89 10 -101 25 -32 9 36 0 130 -16 181 -5 16 -4 16 5 2 17 -26 41
-129 41 -174 0 -64 -28 -145 -62 -178 l-30 -30 -19 57 c-28 81 -57 124 -160
233 -86 91 -131 149 -159 203 -12 23 48 -30 172 -152 30 -30 48 -42 48 -32 0
8 -47 61 -105 118 -58 56 -105 108 -105 115 0 7 41 -26 91 -73 51 -48 94 -84
97 -82z m-1107 -4 c355 -36 663 -155 944 -365 444 -332 715 -821 761 -1374 l7
-80 46 -4 c25 -2 -387 -4 -915 -5 l-962 -2 -26 35 c-15 19 -31 35 -36 35 -4 0
-18 -16 -30 -35 l-22 -35 -1026 2 c-565 1 -977 4 -917 7 l110 6 2 45 c11 200
75 462 158 650 333 748 1104 1201 1906 1120z m-1717 -347 c59 -41 86 -94 86
-169 0 -109 -47 -176 -242 -342 -227 -192 -300 -365 -242 -567 5 -18 5 -18
-10 2 -27 36 -49 142 -43 208 12 152 69 247 260 437 96 95 154 162 167 190 50
111 0 198 -113 198 -61 0 -106 -19 -140 -59 -52 -62 -26 -151 48 -165 32 -6
76 11 83 32 3 11 0 12 -17 2 -62 -33 -121 50 -71 100 27 27 56 25 85 -5 51
-50 16 -146 -57 -158 -45 -7 -114 26 -134 66 -35 67 0 176 72 223 81 53 198
56 268 7z m3308 9 c132 -59 169 -210 70 -281 -52 -37 -139 -23 -161 26 -37 80
30 162 92 112 34 -26 34 -53 1 -85 -24 -25 -35 -26 -77 -9 -13 5 -16 3 -11 -8
8 -23 58 -40 93 -32 67 14 91 93 48 156 -34 51 -80 71 -154 67 -70 -4 -97 -22
-120 -77 -27 -64 5 -137 103 -231 206 -197 262 -268 309 -395 30 -79 34 -197
9 -272 -20 -59 -37 -81 -23 -28 6 21 9 75 7 120 -3 72 -8 91 -46 169 -49 97
-125 182 -287 318 -138 115 -184 211 -161 333 9 48 79 118 132 133 51 14 123
8 176 -16z m-3676 -407 c-7 -67 -21 -112 -96 -293 -26 -66 -44 -128 -49 -170
l-7 -67 -8 57 c-9 66 0 105 55 236 21 50 35 92 30 92 -4 0 -30 -46 -57 -102
-48 -100 -49 -106 -49 -193 0 -75 4 -101 27 -153 21 -50 23 -60 9 -48 -10 9
-31 42 -46 74 -24 48 -29 69 -29 137 1 95 28 168 117 308 30 49 64 111 73 138
25 69 38 62 30 -16z m3839 25 c4 -16 38 -83 77 -147 98 -163 121 -228 116
-323 -5 -77 -36 -160 -73 -190 -10 -9 -7 5 11 40 38 76 45 194 14 270 -22 58
-101 202 -107 196 -2 -1 18 -52 44 -112 42 -96 48 -119 50 -189 l2 -80 -13 72
c-8 39 -37 125 -64 190 -55 126 -82 217 -82 270 0 41 16 43 25 3z m-3694 -377
c-6 -22 -32 -72 -58 -112 -25 -41 -54 -101 -64 -135 l-18 -61 0 65 c-1 97 19
158 85 259 58 89 59 90 62 56 2 -18 -2 -51 -7 -72z m3561 42 c63 -92 88 -145
99 -215 14 -84 3 -128 -15 -60 -7 25 -32 76 -56 113 -51 81 -69 128 -70 181 0
22 2 37 4 35 2 -2 20 -26 38 -54z m-3743 -461 c26 -22 31 -33 31 -71 0 -86
-86 -155 -210 -168 l-55 -5 60 18 c122 37 175 84 175 155 0 44 -28 67 -81 67
-56 0 -99 -40 -99 -91 0 -48 28 -67 73 -50 28 11 37 31 13 31 -40 0 -44 63 -4
76 27 8 59 -26 51 -55 -9 -34 -51 -65 -88 -65 -44 0 -69 24 -69 67 0 95 130
153 203 91z m4042 0 c65 -58 64 -142 -1 -158 -24 -7 -24 -6 3 9 59 34 20 135
-60 151 -24 5 -40 1 -62 -16 -87 -61 -21 -166 132 -212 57 -17 59 -18 17 -13
-106 13 -179 57 -207 123 -19 45 -2 97 40 122 39 24 109 21 138 -6z m-33 -77
c-2 -12 -14 -27 -28 -34 -21 -11 -27 -10 -37 4 -17 23 -16 30 7 53 17 17 24
18 41 10 13 -7 19 -19 17 -33z m-4335 -37 c-3 -11 -18 -31 -34 -44 -34 -29
-36 -36 -9 -36 20 0 90 63 90 81 0 6 5 7 10 4 17 -10 11 -61 -9 -79 -27 -24
-173 -39 -169 -17 2 10 107 103 125 110 0 1 -1 -8 -4 -19z m4567 -75 c36 -12
40 6 7 35 -48 43 -27 45 29 3 47 -35 64 -52 64 -63 0 -3 -34 -3 -76 1 -90 9
-115 26 -112 75 l2 33 33 -39 c19 -21 42 -42 53 -45z m-4750 -15 c-5 -17 -9
-34 -9 -38 -1 -4 -10 -7 -21 -6 -83 3 -98 5 -103 18 -4 11 3 13 33 9 32 -5 45
-1 70 21 17 14 33 26 35 26 2 0 0 -14 -5 -30z m4926 7 c11 -13 18 -29 16 -36
-3 -9 0 -11 8 -6 17 11 70 12 70 3 0 -5 -15 -8 -32 -9 -18 0 -41 -2 -50 -4
-10 -2 -18 2 -18 8 0 7 -7 24 -14 40 -18 33 -7 35 20 4z m144 -37 c0 -5 -4
-10 -10 -10 -5 0 -10 5 -10 10 0 6 5 10 10 10 6 0 10 -4 10 -10z m-4580 -327
l0 -46 -35 36 c-35 36 -39 37 -105 37 l-70 0 0 -295 0 -296 25 -24 24 -25 -96
0 -97 0 22 20 c22 20 22 25 22 320 l0 300 -61 0 c-67 0 -94 -10 -126 -49 l-22
-26 -1 41 c0 22 3 44 7 47 3 4 120 7 260 7 l253 0 0 -47z m432 24 c-20 -22
-22 -33 -22 -160 l0 -137 140 0 140 0 0 134 c0 120 -2 136 -21 160 l-20 26 85
0 c47 0 86 -3 86 -7 0 -3 -8 -15 -17 -26 -16 -17 -18 -47 -21 -261 -4 -272 0
-318 31 -346 l21 -20 -97 0 -96 0 24 25 c24 23 25 29 25 160 l0 135 -140 0
-140 0 0 -137 c0 -127 2 -138 22 -160 l21 -23 -93 0 -93 0 21 23 c22 23 22 29
22 307 0 278 0 284 -22 307 l-21 23 93 0 93 0 -21 -23z m1136 -27 l2 -45 -22
26 c-37 43 -60 49 -177 49 l-111 0 0 -150 0 -150 82 0 c70 0 85 3 105 22 l23
21 0 -52 0 -52 -26 20 c-22 17 -41 21 -105 21 l-79 0 0 -150 0 -150 113 0
c111 0 114 1 169 34 56 33 56 33 47 9 -25 -67 -8 -63 -249 -63 l-219 0 24 25
25 24 0 279 c0 268 -1 280 -21 306 l-21 26 219 -2 218 -3 3 -45z m717 -242
c62 -158 119 -296 125 -308 6 -12 26 -30 43 -41 l32 -21 -63 4 c-80 5 -100 25
-145 138 l-33 85 -111 3 -111 3 -32 -96 c-31 -92 -31 -97 -14 -116 17 -19 16
-19 -39 -19 l-57 0 34 33 c29 28 45 66 120 288 47 141 86 266 86 277 0 11 -7
27 -15 36 -23 23 -18 27 25 24 l41 -3 114 -287z m825 282 c0 -5 -4 -10 -10
-10 -21 0 -30 -87 -30 -310 0 -218 -2 -237 -20 -268 -26 -43 -90 -71 -158 -72
-78 0 -119 21 -142 72 -28 61 -26 78 7 78 21 0 24 -3 15 -12 -7 -7 -12 -24
-12 -39 0 -72 137 -110 191 -53 l24 26 3 271 c3 261 2 272 -18 299 l-21 28 86
0 c50 0 85 -4 85 -10z m631 -270 c136 -345 132 -336 171 -360 l33 -20 -50 0
c-79 0 -103 21 -151 131 l-40 94 -104 3 c-59 1 -108 -2 -113 -7 -15 -15 -57
-141 -57 -172 0 -16 7 -32 18 -38 13 -8 1 -10 -48 -10 -63 0 -64 0 -38 15 15
8 33 24 39 36 19 36 179 521 179 543 0 11 -7 31 -16 43 -16 23 -16 23 27 20
l42 -3 108 -275z m650 254 c-20 -26 -21 -39 -21 -306 l0 -279 25 -24 24 -25
-96 0 -97 0 22 20 c22 20 22 25 22 309 0 244 -2 290 -15 301 -29 24 -14 30 71
30 l85 0 -20 -26z m-2459 -829 c13 -19 26 -35 29 -35 4 0 19 16 33 35 l27 35
1012 -2 c557 -1 969 -4 917 -7 l-95 -6 -12 -110 c-51 -468 -241 -858 -575
-1180 -153 -148 -273 -235 -448 -324 -680 -348 -1482 -256 -2072 236 -235 196
-439 484 -552 781 -62 161 -108 378 -119 557 l-2 40 -190 5 c-104 3 308 7 917
8 l1108 2 22 -35z m2181 28 c-13 -2 -33 -2 -45 0 -13 2 -3 4 22 4 25 0 35 -2
23 -4z m-4676 -64 c8 -8 17 -8 32 1 26 13 41 6 41 -21 0 -11 5 -30 12 -42 13
-24 13 -24 -56 31 -16 13 -34 21 -41 18 -6 -2 -12 2 -12 10 0 17 9 18 24 3z
m474 -15 c39 -12 66 -28 97 -60 37 -39 42 -50 42 -90 0 -102 -122 -140 -197
-61 -42 44 -50 85 -23 120 47 60 153 7 138 -70 -5 -24 -57 -25 -72 0 -9 15 -6
22 18 42 l29 23 -23 12 c-12 6 -33 9 -46 6 -83 -21 -26 -146 67 -146 50 0 79
28 79 75 0 70 -84 130 -228 160 l-67 14 66 -4 c37 -3 91 -12 120 -21z m4259
22 c0 -2 -9 -6 -20 -9 -11 -3 -20 -1 -20 4 0 5 9 9 20 9 11 0 20 -2 20 -4z
m270 -6 c0 -5 -5 -10 -11 -10 -5 0 -7 5 -4 10 3 6 8 10 11 10 2 0 4 -4 4 -10z
m-5050 -33 c0 -9 -36 9 -44 22 -4 5 5 4 19 -2 14 -7 25 -16 25 -20z m4668 9
c-109 -37 -152 -77 -152 -142 0 -48 28 -74 78 -74 51 0 83 22 103 67 13 31 12
38 -2 60 -15 22 -22 24 -53 19 -26 -4 -32 -2 -22 4 43 27 100 -9 100 -63 0
-18 -9 -45 -20 -62 -11 -16 -20 -26 -20 -22 0 5 -7 1 -16 -7 -38 -39 -130 -27
-161 21 -49 75 17 177 135 209 80 21 102 14 30 -10z m477 13 c-18 -7 -18 -8 5
-9 14 -1 20 -4 13 -6 -6 -3 -28 -1 -47 5 -30 8 -38 7 -45 -7 -11 -19 -26 -10
-18 11 3 9 23 13 58 14 37 0 48 -2 34 -8z m-4805 -38 c18 -13 26 -29 28 -57
l2 -39 -31 38 c-34 41 -85 72 -93 58 -3 -5 10 -25 29 -44 53 -53 42 -64 -17
-15 -49 40 -88 77 -88 84 0 2 33 0 73 -3 45 -3 81 -11 97 -22z m4630 21 c0
-16 -59 -64 -69 -57 -7 3 -10 1 -9 -5 2 -6 -7 -19 -19 -27 -15 -10 -23 -11
-23 -4 0 6 7 14 15 17 8 4 12 10 9 15 -3 5 -1 9 5 9 6 0 15 9 21 20 21 40 -22
21 -72 -30 l-48 -50 0 35 c0 48 41 74 116 72 30 -1 54 1 54 6 0 4 5 7 10 7 6
0 10 -4 10 -8z m69 -33 c-23 -15 -28 -10 -16 15 10 21 13 22 21 9 5 -10 4 -18
-5 -24z m-424 -69 c21 -8 26 -16 23 -38 -3 -23 -8 -27 -33 -27 -27 0 -30 3
-33 38 -3 39 2 43 43 27z m-3986 -229 c-17 -49 -6 -195 20 -261 31 -82 113
-183 220 -274 199 -168 251 -240 251 -346 -1 -142 -114 -232 -256 -202 -112
23 -184 96 -184 186 0 64 25 106 75 130 72 34 144 -3 152 -78 5 -38 2 -48 -20
-70 -31 -31 -60 -33 -87 -6 -48 48 -7 119 62 105 l33 -6 -24 21 c-34 30 -77
26 -113 -10 -28 -28 -30 -36 -25 -78 4 -35 12 -53 35 -74 76 -67 210 -60 247
13 42 80 1 165 -146 300 -164 152 -247 273 -279 408 -16 69 -7 165 21 231 24
55 36 63 18 11z m3920 -46 c6 -22 11 -72 11 -111 0 -151 -67 -278 -234 -444
-53 -52 -100 -96 -105 -98 -22 -7 -90 -111 -101 -153 -28 -109 65 -183 188
-150 65 18 103 57 109 113 5 42 3 50 -25 78 -35 34 -83 40 -120 14 -12 -8 -22
-11 -22 -5 0 21 46 41 93 41 42 0 54 -5 82 -33 102 -102 7 -274 -164 -294
-129 -15 -231 75 -231 204 1 108 48 178 212 315 153 127 218 208 267 330 20
49 22 71 19 145 -3 48 -8 97 -12 108 -8 20 -8 20 7 0 8 -11 20 -38 26 -60z
m-4032 -7 c-29 -58 -32 -71 -32 -159 0 -96 0 -96 53 -203 30 -59 56 -106 58
-103 3 3 -13 48 -35 100 -53 124 -64 177 -52 247 l9 55 1 -50 c2 -65 20 -131
66 -234 52 -118 73 -182 81 -250 9 -79 -4 -96 -25 -34 -9 27 -44 96 -78 154
-77 129 -101 182 -114 255 -12 63 0 130 33 199 17 34 55 85 64 85 1 0 -12 -28
-29 -62z m226 -121 c54 -80 67 -111 73 -179 l6 -63 -56 82 c-69 102 -96 179
-95 270 l0 68 18 -63 c10 -35 34 -87 54 -115z m3902 131 c56 -92 71 -201 40
-289 -20 -57 -70 -152 -108 -209 -17 -24 -46 -78 -64 -120 l-33 -75 4 70 c5
76 22 135 67 234 38 83 67 167 79 233 9 51 9 50 6 -27 -2 -64 -9 -95 -36 -155
-17 -41 -39 -90 -47 -108 -21 -50 1 -29 39 36 50 86 78 168 78 226 0 63 -22
157 -44 191 -9 14 -13 25 -8 25 4 0 17 -15 27 -32z m-169 -55 c-8 -78 -34
-141 -100 -239 l-46 -69 0 41 c0 55 15 94 72 188 26 44 48 83 48 87 0 15 20
59 26 59 4 0 4 -30 0 -67z m-131 -738 c14 -13 25 -31 25 -40 0 -21 -44 -65
-65 -65 -30 0 -65 46 -65 85 0 20 3 34 8 32 4 -3 16 -1 27 4 33 13 45 10 70
-16z m-3020 -330 c53 -53 94 -82 156 -113 143 -70 230 -87 565 -112 344 -25
514 -130 514 -318 0 -69 -17 -95 -18 -27 -2 80 -53 151 -141 195 -71 35 -164
50 -386 60 -116 5 -246 16 -289 25 -265 55 -449 197 -523 405 -34 98 -27 114
14 30 26 -54 56 -94 108 -145z m2630 158 c-10 -57 -59 -151 -108 -211 -58 -70
-134 -127 -236 -175 -118 -56 -226 -75 -481 -87 -123 -5 -242 -16 -278 -25
-159 -38 -249 -127 -253 -250 l-1 -30 -9 30 c-23 70 11 166 80 228 98 89 215
122 503 142 232 17 326 33 427 74 91 37 145 69 205 122 50 44 146 179 146 205
0 8 3 14 6 14 3 0 3 -17 -1 -37z m-2786 -62 c16 -63 73 -145 171 -246 74 -77
140 -167 160 -220 13 -35 6 -31 -19 8 -29 48 -218 220 -198 181 9 -17 52 -64
97 -104 45 -40 88 -87 97 -104 12 -22 -11 -6 -83 61 -54 50 -101 90 -103 88
-2 -2 4 -22 13 -45 9 -22 16 -62 15 -88 l-1 -47 -13 46 c-7 26 -29 73 -49 105
-19 33 -45 84 -56 114 -17 49 -19 51 -20 23 0 -36 28 -107 65 -160 46 -68 26
-58 -32 16 l-56 73 -12 -28 c-11 -27 -13 -24 -29 64 -10 53 -14 107 -11 125 6
25 4 29 -5 20 -18 -17 -16 -128 3 -192 22 -71 14 -77 -11 -9 -54 145 -48 247
22 341 28 39 40 34 55 -22z m2858 27 c58 -64 77 -169 49 -278 -22 -86 -36 -98
-19 -16 7 36 11 76 9 88 -3 13 -5 30 -5 39 -1 8 -7 23 -13 32 -11 14 -13 1
-14 -75 -1 -89 -21 -177 -31 -135 -7 27 -16 21 -62 -43 -24 -33 -46 -58 -49
-56 -2 3 5 18 17 35 36 50 61 114 60 156 l0 40 -23 -61 c-12 -33 -37 -85 -56
-115 -18 -30 -39 -72 -46 -94 l-13 -40 0 37 c-1 21 6 56 15 78 28 71 15 64
-109 -57 -37 -36 -70 -63 -74 -59 -4 3 39 50 94 104 88 85 123 126 123 146 0
3 -22 -15 -48 -42 -27 -26 -80 -76 -117 -112 l-69 -65 30 53 c16 29 73 101
128 160 118 129 161 189 177 254 7 26 16 48 19 48 4 0 16 -10 27 -22z m-3042
-498 c4 -6 2 -17 -4 -24 -15 -17 -102 -258 -97 -264 3 -2 58 34 123 81 67 48
119 80 121 73 1 -7 -17 -69 -41 -139 -25 -70 -40 -127 -35 -127 16 0 215 149
222 166 4 12 10 13 26 4 24 -13 26 -30 5 -30 -9 0 -86 -52 -171 -116 -86 -63
-158 -113 -161 -110 -4 4 47 164 85 265 9 23 -17 9 -138 -79 -95 -69 -112 -79
-107 -59 3 13 34 106 68 206 56 158 66 180 81 172 9 -5 20 -14 23 -19z m3196
8 c10 -18 9 -20 -4 -15 -22 8 -140 -79 -131 -96 18 -29 88 -107 97 -107 16 0
87 61 87 76 0 19 14 18 31 -3 10 -12 11 -17 2 -20 -18 -6 -103 -73 -103 -81 0
-9 109 -142 117 -142 2 0 29 19 59 42 54 42 71 68 59 88 -3 5 -2 10 4 10 9 0
31 -31 31 -44 0 -2 -42 -39 -92 -80 -85 -69 -93 -74 -100 -55 -10 25 -212 273
-238 292 -19 13 -14 18 68 85 48 39 90 72 94 72 4 0 12 -10 19 -22z m-2226
-29 c212 -21 297 -30 313 -36 9 -3 14 -3 11 1 -16 17 -124 36 -261 46 -80 6
-159 15 -175 20 -43 13 302 12 373 -1 114 -21 209 -90 259 -188 16 -33 34
-151 22 -151 -3 0 -16 24 -30 53 -13 29 -42 70 -63 91 -76 74 -133 92 -408
126 -89 11 -176 38 -212 65 -16 13 -13 13 26 0 24 -9 90 -20 145 -26z m1335
31 c-19 -5 -98 -13 -174 -19 -120 -9 -264 -36 -253 -47 2 -2 28 1 58 6 30 6
117 15 194 20 77 5 162 16 190 24 59 18 69 15 22 -8 -53 -25 -142 -44 -257
-56 -142 -15 -210 -33 -274 -74 -62 -40 -100 -85 -126 -153 -20 -51 -24 -43
-20 37 7 128 144 252 305 273 60 8 371 5 335 -3z m-1594 -41 c47 -53 155 -101
295 -129 149 -31 146 -22 -6 19 -77 21 -153 45 -170 52 -60 29 -97 51 -92 55
3 3 18 -1 34 -9 44 -23 145 -47 267 -63 152 -20 227 -46 282 -98 24 -23 45
-37 48 -32 8 22 28 -11 21 -34 -6 -18 -9 -20 -16 -9 -6 10 -9 6 -9 -13 0 -35
-10 -35 -41 -2 -37 40 -91 63 -176 75 -169 24 -239 40 -301 69 -70 33 -145 89
-162 121 -14 26 2 24 26 -2z m1749 -30 c-76 -79 -181 -122 -353 -144 -63 -8
-126 -18 -141 -21 -41 -10 -107 -51 -130 -81 l-20 -28 -1 35 c-1 33 -1 34 -15
16 -14 -19 -15 -18 -15 17 0 29 3 35 16 30 9 -3 28 6 47 24 69 64 128 84 311
108 66 9 152 26 190 39 39 14 72 23 74 21 10 -9 -137 -67 -228 -90 -167 -42
-182 -46 -177 -51 8 -8 250 43 304 65 60 24 122 61 142 85 8 9 16 14 19 11 3
-3 -8 -19 -23 -36z m516 -158 c34 -34 40 -92 13 -130 -9 -13 -12 -26 -8 -31
14 -14 193 -90 212 -90 15 -1 15 -2 -2 -15 -29 -22 -41 -19 -151 30 -103 46
-120 51 -129 36 -7 -11 90 -161 104 -161 19 0 10 -16 -19 -33 -28 -16 -29 -16
-35 6 -6 26 -166 280 -196 312 l-20 21 53 32 c101 61 135 65 178 23z m-2465
-106 c142 -83 130 -301 -21 -372 -121 -56 -262 3 -304 126 -33 98 22 214 124
263 55 26 139 19 201 -17z m2224 0 c0 -8 -8 -11 -21 -8 -21 6 -139 -44 -139
-58 0 -4 13 -37 30 -73 28 -63 30 -65 55 -56 51 19 83 40 90 57 6 16 8 15 20
-7 18 -32 18 -41 1 -34 -19 7 -116 -37 -116 -53 0 -19 73 -163 82 -163 5 0 36
14 69 30 41 21 63 39 70 57 8 22 12 24 19 13 22 -35 10 -47 -97 -97 -103 -48
-108 -49 -111 -29 -2 11 -41 98 -86 191 -46 94 -83 170 -82 170 0 0 44 21 96
46 94 46 120 49 120 14z m-254 -94 c-6 -10 87 -308 111 -354 17 -33 17 -33
-20 -42 -24 -6 -27 -4 -27 17 0 23 -44 166 -54 176 -6 5 -168 -47 -180 -59
-10 -9 27 -140 50 -177 14 -21 13 -23 -11 -32 -34 -13 -35 -13 -35 8 0 24
-107 343 -120 356 -16 16 -12 23 20 35 26 9 30 8 30 -8 0 -15 20 -80 45 -148
3 -9 28 -4 89 17 47 16 90 31 95 34 10 6 -24 122 -40 141 -14 15 -10 33 9 38
30 8 43 7 38 -2z m-1628 -55 c17 -9 36 -25 42 -35 29 -56 -11 -135 -76 -147
-23 -4 -34 -12 -34 -23 0 -25 50 -194 61 -205 17 -18 9 -26 -15 -15 -29 14
-41 38 -76 159 -36 125 -49 128 -84 17 -14 -47 -26 -92 -26 -101 0 -9 -6 -13
-15 -11 -8 3 -22 7 -31 10 -12 4 -13 9 -6 18 13 15 122 347 122 370 0 14 6 14
53 -2 30 -11 68 -26 85 -35z m201 -46 c10 0 11 -3 2 -14 -11 -14 -86 -365 -79
-372 2 -2 35 -10 74 -18 60 -13 72 -13 92 0 21 14 22 13 22 -10 0 -14 -3 -27
-8 -30 -4 -2 -50 4 -102 15 -151 30 -142 27 -130 50 16 29 79 359 73 377 -5
12 -1 14 18 9 13 -4 30 -7 38 -7z m932 -30 c24 0 29 -4 29 -26 0 -23 -1 -24
-16 -10 -10 10 -33 16 -64 16 -62 0 -90 -26 -90 -82 0 -33 4 -40 38 -57 20
-10 56 -22 79 -26 60 -10 106 -43 120 -88 31 -94 -66 -169 -192 -148 -35 5
-40 10 -43 35 l-4 28 22 -20 c61 -57 180 -11 180 69 0 40 -28 64 -96 83 -127
35 -167 75 -145 146 6 22 23 45 38 56 31 20 81 34 101 28 8 -2 27 -4 43 -4z
m-556 -39 c144 -63 165 -264 38 -354 -52 -37 -102 -48 -186 -40 -60 5 -67 8
-62 24 10 31 33 359 27 381 -5 20 -2 21 69 14 41 -4 92 -15 114 -25z m332 1
c-6 -25 18 -362 28 -384 6 -15 2 -18 -27 -18 -32 0 -34 2 -30 29 4 32 -15 332
-25 369 -5 19 -1 22 27 22 27 0 31 -3 27 -18z"/>
<path d="M6030 7579 c-127 -15 -279 -49 -384 -86 -703 -242 -1188 -859 -1251
-1591 l-8 -83 154 3 154 3 7 35 c4 19 16 87 28 150 86 469 397 886 824 1104
48 25 92 46 99 49 6 2 10 20 9 43 -2 38 0 42 65 91 146 110 380 226 483 240
86 12 344 -103 505 -224 89 -68 90 -69 87 -108 l-2 -40 84 -38 c453 -207 794
-681 869 -1207 l13 -95 148 -5 c81 -3 153 -2 158 1 7 5 6 50 -5 141 -66 547
-357 1019 -820 1328 -179 119 -456 229 -682 271 -127 23 -416 33 -535 18z"/>
<path d="M6145 7469 c-93 -31 -211 -91 -310 -157 -136 -89 -131 -81 -105 -204
66 -308 227 -557 436 -674 l66 -37 42 20 c67 33 164 111 226 183 118 138 197
308 240 522 23 109 27 100 -94 182 -104 70 -220 129 -315 161 -91 30 -108 30
-186 4z m269 -275 c15 -39 6 -46 -25 -20 -24 20 -41 26 -80 26 l-49 0 0 -215
c0 -202 1 -216 20 -235 l20 -20 -71 0 c-64 0 -69 1 -55 16 14 13 16 49 16 235
l0 219 -49 0 c-34 0 -56 -6 -75 -21 l-26 -20 0 25 0 26 184 0 c158 0 185 -2
190 -16z"/>
<path d="M6785 7092 c-18 -84 -72 -233 -115 -319 -88 -175 -217 -315 -364
-393 -59 -32 -68 -34 -97 -23 -146 55 -324 233 -416 418 -35 68 -84 205 -103
283 -6 28 -16 52 -21 52 -36 0 -232 -113 -341 -196 -309 -238 -532 -638 -573
-1028 l-7 -59 74 7 c113 11 145 31 242 155 46 59 103 120 125 135 51 36 52 42
3 17 -41 -21 -110 -91 -186 -188 -31 -40 -64 -70 -92 -84 -62 -29 -73 -20 -21
18 25 17 73 66 108 109 141 174 207 219 319 218 42 0 79 -7 105 -19 l40 -18
-71 -8 c-39 -3 -86 -14 -105 -24 -38 -20 -119 -83 -119 -93 0 -4 37 -7 82 -7
65 0 94 -5 132 -23 27 -12 47 -24 45 -27 -3 -2 -34 1 -70 7 -90 14 -192 -3
-254 -44 -25 -16 -45 -34 -45 -40 0 -5 13 0 29 12 38 27 93 46 159 55 64 9 68
-1 6 -16 -42 -11 -232 -125 -222 -134 3 -3 383 5 903 18 148 4 151 5 224 40
l73 36 57 -26 c31 -14 70 -31 86 -38 21 -9 134 -14 385 -19 195 -3 428 -9 518
-13 94 -3 162 -2 161 3 -1 13 -144 104 -195 123 -62 24 -62 29 2 19 58 -9 101
-27 143 -59 39 -31 46 -22 10 13 -19 17 -53 40 -77 50 -53 24 -171 34 -232 20
-24 -6 -46 -9 -48 -8 -2 2 19 14 45 27 39 20 63 24 131 24 45 -1 82 3 82 6 0
11 -80 74 -119 94 -19 10 -66 21 -105 24 l-71 8 35 15 c59 27 114 31 173 14
73 -21 124 -61 209 -163 86 -103 122 -139 163 -164 28 -18 28 -19 7 -19 -41 0
-79 28 -133 97 -96 124 -158 183 -209 198 -19 6 -16 1 15 -22 45 -33 87 -80
157 -170 25 -33 62 -72 81 -87 33 -25 111 -47 182 -50 28 -1 30 2 31 34 3 50
-32 226 -62 317 -40 123 -156 348 -231 448 -133 177 -339 352 -525 446 -102
52 -107 52 -113 21z m-1157 -208 c66 -33 93 -65 179 -210 135 -227 202 -297
316 -333 73 -23 59 -36 -32 -29 -95 7 -158 45 -303 184 -98 95 -136 125 -163
130 -46 8 -77 0 -114 -31 -80 -68 -51 -195 45 -195 60 0 86 22 41 34 -13 3
-29 17 -35 31 -37 80 94 127 144 50 39 -59 -26 -160 -117 -183 -129 -32 -240
86 -210 224 26 113 154 196 259 165 43 -13 41 0 -8 53 -83 90 -178 102 -252
33 -29 -27 -36 -21 -16 16 44 84 165 112 266 61z m1395 10 c43 -22 66 -43 83
-77 l15 -28 -42 31 c-80 58 -186 34 -256 -59 -19 -24 -32 -45 -31 -47 2 -1 22
1 44 6 52 12 129 -7 172 -41 106 -84 107 -257 2 -327 -50 -34 -142 -28 -194
11 -67 52 -84 115 -42 163 43 51 136 28 136 -34 0 -31 -26 -62 -52 -62 -10 0
-18 -4 -18 -9 0 -25 94 -29 127 -6 29 20 44 76 32 118 -21 76 -117 120 -185
84 -16 -9 -74 -61 -130 -116 -148 -146 -227 -191 -335 -191 -67 0 -67 11 -2
32 113 35 181 108 310 328 67 113 104 162 145 191 68 49 162 63 221 33z
m-1752 -337 c52 -35 79 -82 79 -139 0 -55 -10 -79 -49 -121 -38 -41 -73 -57
-129 -57 -41 0 -55 5 -81 29 -19 18 -31 39 -31 54 0 35 38 76 76 83 40 8 74
-22 74 -66 0 -36 19 -32 43 9 54 91 -36 176 -132 126 -72 -37 -111 -123 -136
-300 -25 -181 -68 -249 -191 -295 -19 -7 -11 4 29 40 72 66 84 101 91 265 8
216 51 310 170 377 47 26 144 24 187 -5z m2118 3 c52 -26 106 -92 132 -159 17
-44 23 -90 29 -208 8 -178 25 -224 101 -282 32 -25 37 -32 19 -26 -109 33
-158 110 -185 290 -20 139 -23 150 -51 206 -25 51 -72 96 -110 105 -38 10 -92
-5 -109 -29 -22 -31 -19 -89 6 -121 28 -35 39 -33 39 9 0 73 100 83 136 13 40
-78 -62 -145 -163 -107 -34 13 -80 55 -99 91 -22 43 -18 119 9 159 50 74 163
102 246 59z"/>
<path d="M5558 6670 c-42 -13 -87 -49 -104 -83 -16 -32 -16 -32 15 5 17 20 51
44 76 53 90 35 180 -4 272 -117 28 -35 68 -79 88 -98 32 -29 29 -24 -16 34
-83 107 -129 155 -173 181 -46 27 -118 38 -158 25z"/>
<path d="M6800 6669 c-63 -19 -104 -55 -194 -169 -103 -131 -100 -128 83 66
115 122 248 122 322 -1 11 -16 19 -23 19 -15 0 26 -37 76 -73 99 -41 25 -109
34 -157 20z"/>
<path d="M5121 6523 c-84 -30 -148 -120 -170 -238 -18 -97 -11 -126 8 -34 35
164 102 246 218 265 53 8 90 -9 110 -51 16 -34 16 -40 1 -81 -18 -51 -15 -57
7 -14 40 77 -2 159 -85 166 -26 2 -64 -3 -89 -13z"/>
<path d="M7204 6521 c-62 -39 -66 -138 -8 -192 l27 -24 -28 48 c-60 104 2 187
117 157 93 -25 156 -104 183 -228 28 -131 35 -145 29 -59 -9 140 -65 246 -150
287 -66 32 -131 36 -170 11z"/>
<path d="M4503 7269 c-18 -5 -35 -15 -39 -21 -5 -8 -2 -9 12 -4 36 15 102 18
136 7 57 -19 91 -62 96 -124 6 -78 -22 -135 -106 -213 -221 -208 -226 -214
-66 -86 132 105 174 157 193 241 30 136 -87 240 -226 200z"/>
<path d="M7845 7273 c-36 -9 -87 -55 -102 -92 -43 -103 21 -231 173 -345 23
-17 65 -51 93 -74 28 -24 51 -39 51 -34 0 6 -35 41 -77 79 -184 161 -222 214
-223 310 0 42 5 58 27 84 49 57 107 71 189 43 55 -18 69 -12 24 11 -34 17
-121 28 -155 18z"/>
<path d="M6385 5449 c-34 -91 -83 -254 -79 -260 7 -12 181 -11 189 0 5 8 -88
257 -100 269 -3 3 -7 -1 -10 -9z"/>
<path d="M7846 5449 c-3 -8 -23 -68 -45 -134 -28 -82 -37 -121 -29 -126 17
-11 176 -10 183 0 6 10 -80 248 -96 265 -5 6 -10 4 -13 -5z"/>
<path d="M4395 4678 c76 -883 769 -1584 1656 -1678 334 -35 688 29 994 179
202 100 347 206 512 373 109 111 121 126 205 248 176 255 287 566 313 878 l7
83 -158 -3 -158 -3 -13 -95 c-73 -522 -399 -975 -865 -1203 -584 -286 -1291
-158 -1744 315 -123 128 -196 232 -277 394 -85 169 -129 321 -163 562 l-5 32
-156 0 -156 0 8 -82z"/>
<path d="M7622 4744 c-45 -7 -93 -19 -107 -28 -23 -15 -72 -70 -157 -176 -24
-30 -63 -69 -87 -87 -55 -43 -38 -43 25 0 26 17 87 79 134 136 60 74 97 110
125 123 67 29 86 21 28 -12 -37 -21 -75 -58 -126 -123 -90 -112 -145 -163
-206 -190 -59 -26 -151 -27 -206 -2 l-40 18 72 8 c72 7 126 31 178 76 52 46
50 49 -38 48 -66 0 -91 4 -130 24 -26 13 -47 24 -45 26 2 1 33 -2 70 -8 124
-19 249 19 303 91 l19 27 -24 -17 c-68 -48 -110 -68 -162 -76 -62 -10 -82 1
-24 12 19 4 72 31 117 61 45 30 87 56 93 58 39 15 -58 15 -525 4 l-524 -13
-77 -36 -77 -36 -73 36 -73 35 -335 8 c-184 4 -425 10 -535 13 l-200 6 90 -60
c96 -64 127 -78 209 -91 43 -7 39 -8 -29 -4 -86 4 -149 22 -196 55 -16 12 -27
16 -24 8 10 -26 91 -67 158 -79 53 -10 81 -10 133 0 37 6 69 10 72 7 3 -3 -17
-16 -44 -28 -38 -17 -68 -23 -131 -23 -46 0 -83 -1 -83 -3 0 -1 17 -18 37 -37
53 -50 116 -78 193 -85 l65 -6 -38 -17 c-134 -61 -257 -12 -391 156 -81 102
-134 152 -180 173 -27 11 -28 13 -9 14 58 1 103 -32 182 -129 85 -104 110
-129 156 -156 23 -14 18 -6 -20 31 -27 28 -81 89 -118 138 -79 101 -112 121
-224 132 -70 6 -73 6 -73 -15 0 -12 6 -21 15 -21 24 0 90 -36 128 -70 47 -41
72 -106 91 -235 21 -143 42 -207 83 -255 57 -66 141 -76 183 -23 24 31 26 66
3 104 -24 40 -43 45 -43 11 0 -33 -8 -45 -37 -61 -30 -15 -69 -4 -93 26 -48
61 0 133 88 133 96 0 171 -66 180 -158 6 -69 -16 -115 -74 -152 -80 -50 -179
-37 -252 33 -78 75 -100 143 -111 342 -9 178 -20 206 -102 268 -63 48 -66 39
-32 -121 90 -438 400 -843 791 -1037 87 -43 106 -40 172 24 51 50 68 91 109
266 51 217 162 352 306 372 46 6 64 -9 26 -22 -39 -12 -104 -88 -136 -159 -18
-39 -45 -118 -60 -176 -37 -143 -60 -200 -100 -253 -39 -51 -87 -84 -148 -102
l-41 -12 64 -21 c197 -65 401 -90 593 -73 126 12 288 46 366 77 l42 17 -58 23
c-66 27 -128 87 -162 159 -12 25 -40 110 -62 188 -23 78 -52 166 -67 195 -23
47 -86 115 -138 150 -16 11 -13 12 28 8 104 -12 204 -93 259 -210 16 -35 45
-124 64 -199 46 -185 75 -236 155 -272 l41 -19 76 38 c142 70 243 144 374 275
182 182 304 379 378 607 43 133 81 348 63 357 -4 2 -44 -2 -90 -9z m41 -63
c-42 -30 -84 -81 -98 -116 -4 -11 -11 -87 -15 -170 -9 -164 -26 -228 -79 -303
-36 -48 -119 -92 -176 -92 -54 0 -124 37 -153 80 -32 47 -28 139 7 188 46 65
150 92 212 55 72 -42 42 -143 -42 -143 -42 0 -61 17 -63 59 -2 43 -9 44 -36 4
-30 -44 -30 -97 -1 -127 30 -29 108 -29 148 0 65 48 95 123 118 296 8 60 23
127 33 150 23 50 70 97 127 126 57 30 65 27 18 -7z m-506 -87 c-3 -3 -12 -4
-19 -1 -8 3 -5 6 6 6 11 1 17 -2 13 -5z m-987 -333 c0 -5 -20 -14 -44 -20
-104 -26 -183 -107 -311 -322 -43 -73 -94 -147 -112 -165 -99 -99 -239 -110
-317 -24 -39 44 -53 87 -15 49 26 -26 80 -49 116 -49 45 1 106 34 146 80 20
24 37 46 37 49 0 3 -36 6 -79 6 -73 0 -83 3 -123 31 -110 80 -127 224 -35 314
61 60 159 60 230 1 87 -73 63 -188 -39 -179 -74 6 -95 93 -29 118 37 14 21 30
-28 30 -53 0 -82 -20 -97 -65 -15 -46 1 -95 41 -130 76 -63 127 -46 272 93
147 141 146 140 214 168 58 24 173 34 173 15z m324 -26 c39 -20 102 -71 187
-152 133 -126 164 -144 224 -129 68 17 113 99 91 167 -15 48 -72 75 -121 59
-36 -12 -47 -30 -18 -30 25 0 53 -30 53 -57 0 -60 -88 -85 -135 -38 -31 30
-32 72 -2 115 37 55 70 74 140 78 53 3 67 0 97 -20 104 -71 108 -227 6 -315
-45 -41 -96 -56 -162 -51 -63 5 -67 -2 -24 -54 61 -74 166 -99 231 -55 62 42
62 42 45 8 -45 -87 -172 -113 -275 -56 -63 35 -95 74 -179 215 -128 215 -193
283 -298 317 -30 9 -54 21 -54 26 0 5 30 8 68 5 50 -2 83 -11 126 -33z m-274
-109 c0 -3 -5 -17 -11 -33 -6 -15 -15 -89 -20 -163 -7 -124 -10 -139 -41 -199
-22 -43 -48 -76 -76 -98 -63 -48 -73 -44 -51 21 11 30 23 99 29 153 14 135 27
184 61 237 30 49 109 107 109 82z m74 -15 c36 -24 82 -91 96 -140 6 -20 15
-81 21 -135 6 -55 19 -129 29 -165 10 -36 17 -67 15 -69 -8 -8 -65 30 -95 64
-57 66 -73 115 -81 259 -4 72 -12 143 -18 158 -20 52 -13 58 33 28z"/>
<path d="M7517 4400 c-2 -8 -10 -44 -16 -80 -29 -156 -113 -249 -228 -250 -55
0 -71 7 -88 41 -20 39 -19 58 9 113 l24 48 -22 -21 c-58 -54 -53 -152 8 -191
86 -53 219 8 280 128 24 48 53 188 43 213 -4 11 -6 11 -10 -1z"/>
<path d="M5830 4070 c-51 -56 -107 -108 -124 -117 -85 -44 -165 -34 -229 30
-36 36 -38 37 -22 10 57 -98 204 -112 301 -30 29 24 179 207 170 207 -2 0 -45
-45 -96 -100z"/>
<path d="M6547 4160 c20 -31 125 -161 149 -185 92 -93 253 -88 313 8 28 46 27
69 -1 27 -37 -53 -71 -73 -136 -78 -74 -5 -124 18 -190 90 -75 82 -146 154
-135 138z"/>
<path d="M4945 4348 c13 -163 86 -268 209 -299 112 -28 192 63 141 161 -22 42
-25 37 -8 -14 30 -89 -29 -147 -127 -125 -103 23 -168 106 -201 256 l-19 88 5
-67z"/>
<path d="M4495 3767 c172 -152 214 -210 215 -297 0 -50 -25 -100 -63 -124 -37
-25 -106 -30 -156 -13 -41 15 -43 15 -27 -1 11 -12 38 -18 89 -20 62 -3 77 -1
106 20 98 66 97 201 0 313 -36 41 -213 185 -226 185 -4 -1 24 -29 62 -63z"/>
<path d="M7945 3770 c-128 -104 -158 -137 -191 -205 -45 -95 -20 -197 58 -237
52 -27 132 -27 187 1 57 30 47 37 -14 10 -113 -50 -225 15 -225 131 0 88 48
154 218 299 50 43 95 94 80 90 -2 0 -52 -40 -113 -89z"/>
<path d="M7518 2579 c-15 -4 -36 -13 -47 -21 -20 -14 -19 -15 20 -81 l40 -67
29 15 c35 18 53 49 52 88 -1 51 -42 80 -94 66z"/>
<path d="M5006 2485 c-55 -19 -87 -45 -114 -91 -30 -52 -28 -168 4 -211 77
-102 231 -83 292 37 75 148 -39 314 -182 265z"/>
<path d="M5381 2288 c-29 -87 -28 -96 16 -104 46 -9 80 4 101 38 27 46 -8 103
-74 123 -19 5 -24 -1 -43 -57z"/>
<path d="M5939 2203 c0 -10 -6 -90 -13 -178 -7 -88 -11 -163 -9 -167 9 -17
100 -7 143 15 62 32 83 65 88 140 6 95 -30 158 -111 192 -51 21 -97 20 -98 -2z"/>
</g>
</svg>
